<?xml version="1.0" encoding="UTF-8"?>
<mxfile host="app.diagrams.net" modified="2024-12-19T16:00:00.000Z" agent="5.0" etag="horizontal-bpmn-fixed" version="24.7.17">
  <diagram name="TechnoSvit - Item Purchase Process" id="horizontal-bpmn">
    <mxGraphModel dx="2500" dy="1500" grid="1" gridSize="10" guides="1" tooltips="1" connect="1" arrows="1" fold="1" page="1" pageScale="1" pageWidth="2200" pageHeight="1400" math="0" shadow="0">
      <root>
    <mxCell id="0"/>
    <mxCell id="1" parent="0"/>
    <mxCell id="bpmn_1" value="TechnoSvit E-commerce System" style="swimlane;html=1;childLayout=stackLayout;resizeParent=1;resizeParentMax=0;horizontal=1;startSize=50;horizontalStack=0;collapsible=0;swimlaneLine=1;fillColor=#ffffff;strokeColor=#000000;fontStyle=1;fontSize=14;fontColor=#000000;" vertex="1" parent="1">
      <mxGeometry x="30" y="30" width="1800" height="1200" as="geometry"/>
    </mxCell>
    <mxCell id="bpmn_2" value="Customer" style="swimlane;html=1;startSize=120;horizontal=1;swimlaneLine=1;fillColor=#f8f9fa;strokeColor=#6c757d;fontSize=12;fontColor=#000000;" vertex="1" parent="bpmn_1">
      <mxGeometry x="60" y="80" width="1750" height="240" as="geometry"/>
    </mxCell>
    <mxCell id="bpmn_3" value="Web Application" style="swimlane;html=1;startSize=120;horizontal=1;swimlaneLine=1;fillColor=#f8f9fa;strokeColor=#6c757d;fontSize=12;fontColor=#000000;" vertex="1" parent="bpmn_1">
      <mxGeometry x="60" y="280" width="1750" height="240" as="geometry"/>
    </mxCell>
    <mxCell id="bpmn_4" value="Business Logic" style="swimlane;html=1;startSize=120;horizontal=1;swimlaneLine=1;fillColor=#f8f9fa;strokeColor=#6c757d;fontSize=12;fontColor=#000000;" vertex="1" parent="bpmn_1">
      <mxGeometry x="60" y="480" width="1750" height="240" as="geometry"/>
    </mxCell>
    <mxCell id="bpmn_5" value="Data Layer" style="swimlane;html=1;startSize=120;horizontal=1;swimlaneLine=1;fillColor=#f8f9fa;strokeColor=#6c757d;fontSize=12;fontColor=#000000;" vertex="1" parent="bpmn_1">
      <mxGeometry x="60" y="680" width="1750" height="240" as="geometry"/>
    </mxCell>
    <mxCell id="bpmn_6" value="Payment Gateway System" style="swimlane;html=1;childLayout=stackLayout;resizeParent=1;resizeParentMax=0;horizontal=1;startSize=50;horizontalStack=0;collapsible=0;swimlaneLine=1;fillColor=#ffffff;strokeColor=#000000;fontStyle=1;fontSize=14;fontColor=#000000;" vertex="1" parent="1">
      <mxGeometry x="30" y="980" width="1800" height="1200" as="geometry"/>
    </mxCell>
    <mxCell id="bpmn_7" value="âœ‰\nVisit\nWebsite" style="ellipse;whiteSpace=wrap;html=1;aspect=fixed;fillColor=#D5E8D4;strokeColor=#82B366;strokeWidth=3;fontSize=10;fontColor=#000000;" vertex="1" parent="bpmn_2">
      <mxGeometry x="150" y="140" width="50" height="50" as="geometry"/>
    </mxCell>
    <mxCell id="bpmn_8" value="ðŸ‘¤\nBrowse\nProducts" style="rounded=1;whiteSpace=wrap;html=1;fillColor=#DAE8FC;strokeColor=#6C8EBF;strokeWidth=2;fontSize=11;fontColor=#000000;" vertex="1" parent="bpmn_2">
      <mxGeometry x="350" y="140" width="140" height="70" as="geometry"/>
    </mxCell>
    <mxCell id="bpmn_10" value="âœ•\nSelect\nProduct?" style="rhombus;whiteSpace=wrap;html=1;fillColor=#FFF2CC;strokeColor=#D6B656;strokeWidth=3;fontSize=12;fontColor=#000000;" vertex="1" parent="bpmn_2">
      <mxGeometry x="550" y="140" width="60" height="60" as="geometry"/>
    </mxCell>
    <mxCell id="bpmn_12" value="ðŸ‘¤\nAdd to\nCart" style="rounded=1;whiteSpace=wrap;html=1;fillColor=#DAE8FC;strokeColor=#6C8EBF;strokeWidth=2;fontSize=11;fontColor=#000000;" vertex="1" parent="bpmn_2">
      <mxGeometry x="750" y="140" width="140" height="70" as="geometry"/>
    </mxCell>
    <mxCell id="bpmn_14" value="âœ•\nCheckout?" style="rhombus;whiteSpace=wrap;html=1;fillColor=#FFF2CC;strokeColor=#D6B656;strokeWidth=3;fontSize=12;fontColor=#000000;" vertex="1" parent="bpmn_2">
      <mxGeometry x="950" y="140" width="60" height="60" as="geometry"/>
    </mxCell>
    <mxCell id="bpmn_17" value="ðŸ‘¤\nCheckout\nProcess" style="rounded=1;whiteSpace=wrap;html=1;fillColor=#DAE8FC;strokeColor=#6C8EBF;strokeWidth=2;fontSize=11;fontColor=#000000;" vertex="1" parent="bpmn_2">
      <mxGeometry x="1150" y="140" width="140" height="70" as="geometry"/>
    </mxCell>
    <mxCell id="bpmn_19" value="ðŸ‘¤\nFill Order\nDetails" style="rounded=1;whiteSpace=wrap;html=1;fillColor=#DAE8FC;strokeColor=#6C8EBF;strokeWidth=2;fontSize=11;fontColor=#000000;" vertex="1" parent="bpmn_2">
      <mxGeometry x="1350" y="140" width="140" height="70" as="geometry"/>
    </mxCell>
    <mxCell id="bpmn_21" value="ðŸ‘¤\nMake\nPayment" style="rounded=1;whiteSpace=wrap;html=1;fillColor=#DAE8FC;strokeColor=#6C8EBF;strokeWidth=2;fontSize=11;fontColor=#000000;" vertex="1" parent="bpmn_2">
      <mxGeometry x="1550" y="140" width="140" height="70" as="geometry"/>
    </mxCell>
    <mxCell id="bpmn_23" value="âœ‰\nOrder\nCompleted" style="ellipse;whiteSpace=wrap;html=1;aspect=fixed;fillColor=#F8CECC;strokeColor=#B85450;strokeWidth=6;fontSize=10;fontColor=#000000;" vertex="1" parent="bpmn_2">
      <mxGeometry x="1750" y="140" width="50" height="50" as="geometry"/>
    </mxCell>
    <mxCell id="bpmn_25" value="ðŸ“¥\nHandle\nRequest" style="rounded=1;whiteSpace=wrap;html=1;fillColor=#D5E8D4;strokeColor=#82B366;strokeWidth=2;fontSize=11;fontColor=#000000;" vertex="1" parent="bpmn_3">
      <mxGeometry x="150" y="340" width="140" height="70" as="geometry"/>
    </mxCell>
    <mxCell id="bpmn_27" value="âš™\nLoad Product\nCatalog" style="rounded=1;whiteSpace=wrap;html=1;fillColor=#E1D5E7;strokeColor=#9673A6;strokeWidth=2;fontSize=11;fontColor=#000000;" vertex="1" parent="bpmn_3">
      <mxGeometry x="350" y="340" width="140" height="70" as="geometry"/>
    </mxCell>
    <mxCell id="bpmn_29" value="âš™\nRender\nPage" style="rounded=1;whiteSpace=wrap;html=1;fillColor=#E1D5E7;strokeColor=#9673A6;strokeWidth=2;fontSize=11;fontColor=#000000;" vertex="1" parent="bpmn_3">
      <mxGeometry x="550" y="340" width="140" height="70" as="geometry"/>
    </mxCell>
    <mxCell id="bpmn_31" value="âš™\nManage\nCart" style="rounded=1;whiteSpace=wrap;html=1;fillColor=#E1D5E7;strokeColor=#9673A6;strokeWidth=2;fontSize=11;fontColor=#000000;" vertex="1" parent="bpmn_3">
      <mxGeometry x="750" y="340" width="140" height="70" as="geometry"/>
    </mxCell>
    <mxCell id="bpmn_33" value="âš™\nProcess\nCheckout" style="rounded=1;whiteSpace=wrap;html=1;fillColor=#E1D5E7;strokeColor=#9673A6;strokeWidth=2;fontSize=11;fontColor=#000000;" vertex="1" parent="bpmn_3">
      <mxGeometry x="950" y="340" width="140" height="70" as="geometry"/>
    </mxCell>
    <mxCell id="bpmn_35" value="âš™\nProcess\nOrder Form" style="rounded=1;whiteSpace=wrap;html=1;fillColor=#E1D5E7;strokeColor=#9673A6;strokeWidth=2;fontSize=11;fontColor=#000000;" vertex="1" parent="bpmn_3">
      <mxGeometry x="1150" y="340" width="140" height="70" as="geometry"/>
    </mxCell>
    <mxCell id="bpmn_37" value="ðŸ“¤\nSend\nConfirmation" style="rounded=1;whiteSpace=wrap;html=1;fillColor=#F8CECC;strokeColor=#B85450;strokeWidth=2;fontSize=11;fontColor=#000000;" vertex="1" parent="bpmn_3">
      <mxGeometry x="1350" y="340" width="140" height="70" as="geometry"/>
    </mxCell>
    <mxCell id="bpmn_39" value="Request\nProcessed" style="ellipse;whiteSpace=wrap;html=1;aspect=fixed;fillColor=#F8CECC;strokeColor=#B85450;strokeWidth=6;fontSize=10;fontColor=#000000;" vertex="1" parent="bpmn_3">
      <mxGeometry x="1550" y="340" width="50" height="50" as="geometry"/>
    </mxCell>
    <mxCell id="bpmn_41" value="ðŸ“¥\nReceive\nOrder Data" style="rounded=1;whiteSpace=wrap;html=1;fillColor=#D5E8D4;strokeColor=#82B366;strokeWidth=2;fontSize=11;fontColor=#000000;" vertex="1" parent="bpmn_4">
      <mxGeometry x="150" y="540" width="140" height="70" as="geometry"/>
    </mxCell>
    <mxCell id="bpmn_43" value="âš™\nAuthenticate\nUser" style="rounded=1;whiteSpace=wrap;html=1;fillColor=#E1D5E7;strokeColor=#9673A6;strokeWidth=2;fontSize=11;fontColor=#000000;" vertex="1" parent="bpmn_4">
      <mxGeometry x="350" y="540" width="140" height="70" as="geometry"/>
    </mxCell>
    <mxCell id="bpmn_45" value="âš™\nValidate\nCart" style="rounded=1;whiteSpace=wrap;html=1;fillColor=#E1D5E7;strokeColor=#9673A6;strokeWidth=2;fontSize=11;fontColor=#000000;" vertex="1" parent="bpmn_4">
      <mxGeometry x="550" y="540" width="140" height="70" as="geometry"/>
    </mxCell>
    <mxCell id="bpmn_47" value="âœ•\nCart\nValid?" style="rhombus;whiteSpace=wrap;html=1;fillColor=#FFF2CC;strokeColor=#D6B656;strokeWidth=3;fontSize=12;fontColor=#000000;" vertex="1" parent="bpmn_4">
      <mxGeometry x="750" y="540" width="60" height="60" as="geometry"/>
    </mxCell>
    <mxCell id="bpmn_49" value="âš™\nCreate\nOrder" style="rounded=1;whiteSpace=wrap;html=1;fillColor=#E1D5E7;strokeColor=#9673A6;strokeWidth=2;fontSize=11;fontColor=#000000;" vertex="1" parent="bpmn_4">
      <mxGeometry x="950" y="540" width="140" height="70" as="geometry"/>
    </mxCell>
    <mxCell id="bpmn_51" value="âš™\nUpdate\nInventory" style="rounded=1;whiteSpace=wrap;html=1;fillColor=#E1D5E7;strokeColor=#9673A6;strokeWidth=2;fontSize=11;fontColor=#000000;" vertex="1" parent="bpmn_4">
      <mxGeometry x="1150" y="540" width="140" height="70" as="geometry"/>
    </mxCell>
    <mxCell id="bpmn_53" value="ðŸ’»\nGenerate\nInvoice" style="rounded=1;whiteSpace=wrap;html=1;fillColor=#FFF2CC;strokeColor=#D6B656;strokeWidth=2;fontSize=11;fontColor=#000000;" vertex="1" parent="bpmn_4">
      <mxGeometry x="1350" y="540" width="140" height="70" as="geometry"/>
    </mxCell>
    <mxCell id="bpmn_55" value="Order\nProcessed" style="ellipse;whiteSpace=wrap;html=1;aspect=fixed;fillColor=#F8CECC;strokeColor=#B85450;strokeWidth=6;fontSize=10;fontColor=#000000;" vertex="1" parent="bpmn_4">
      <mxGeometry x="1550" y="540" width="50" height="50" as="geometry"/>
    </mxCell>
    <mxCell id="bpmn_57" value="âš \nValidation\nError" style="ellipse;whiteSpace=wrap;html=1;aspect=fixed;fillColor=#F8CECC;strokeColor=#B85450;strokeWidth=6;fontSize=10;fontColor=#000000;" vertex="1" parent="bpmn_4">
      <mxGeometry x="950" y="620" width="50" height="50" as="geometry"/>
    </mxCell>
    <mxCell id="bpmn_59" value="Products\nDB" style="shape=cylinder3;whiteSpace=wrap;html=1;boundedLbl=1;backgroundOutline=1;size=15;fillColor=#F5F5F5;strokeColor=#666666;fontSize=10;fontColor=#000000;" vertex="1" parent="bpmn_5">
      <mxGeometry x="300" y="810" width="100" height="70" as="geometry"/>
    </mxCell>
    <mxCell id="bpmn_60" value="Orders\nDB" style="shape=cylinder3;whiteSpace=wrap;html=1;boundedLbl=1;backgroundOutline=1;size=15;fillColor=#F5F5F5;strokeColor=#666666;fontSize=10;fontColor=#000000;" vertex="1" parent="bpmn_5">
      <mxGeometry x="500" y="810" width="100" height="70" as="geometry"/>
    </mxCell>
    <mxCell id="bpmn_61" value="Users\nDB" style="shape=cylinder3;whiteSpace=wrap;html=1;boundedLbl=1;backgroundOutline=1;size=15;fillColor=#F5F5F5;strokeColor=#666666;fontSize=10;fontColor=#000000;" vertex="1" parent="bpmn_5">
      <mxGeometry x="700" y="810" width="100" height="70" as="geometry"/>
    </mxCell>
    <mxCell id="bpmn_62" value="Cart\nDB" style="shape=cylinder3;whiteSpace=wrap;html=1;boundedLbl=1;backgroundOutline=1;size=15;fillColor=#F5F5F5;strokeColor=#666666;fontSize=10;fontColor=#000000;" vertex="1" parent="bpmn_5">
      <mxGeometry x="900" y="810" width="100" height="70" as="geometry"/>
    </mxCell>
    <mxCell id="bpmn_63" value="Inventory\nDB" style="shape=cylinder3;whiteSpace=wrap;html=1;boundedLbl=1;backgroundOutline=1;size=15;fillColor=#F5F5F5;strokeColor=#666666;fontSize=10;fontColor=#000000;" vertex="1" parent="bpmn_5">
      <mxGeometry x="1100" y="810" width="100" height="70" as="geometry"/>
    </mxCell>
    <mxCell id="bpmn_64" value="âš™\nPayment\nGateway" style="rounded=1;whiteSpace=wrap;html=1;fillColor=#E1D5E7;strokeColor=#9673A6;strokeWidth=2;fontSize=11;fontColor=#000000;" vertex="1" parent="bpmn_6">
      <mxGeometry x="800" y="1100" width="140" height="70" as="geometry"/>
    </mxCell>
    <mxCell id="bpmn_66" value="âš™\nValidate\nPayment" style="rounded=1;whiteSpace=wrap;html=1;fillColor=#E1D5E7;strokeColor=#9673A6;strokeWidth=2;fontSize=11;fontColor=#000000;" vertex="1" parent="bpmn_6">
      <mxGeometry x="1000" y="1100" width="140" height="70" as="geometry"/>
    </mxCell>
    <mxCell id="bpmn_68" value="âœ•\nPayment\nResult" style="rhombus;whiteSpace=wrap;html=1;fillColor=#FFF2CC;strokeColor=#D6B656;strokeWidth=3;fontSize=12;fontColor=#000000;" vertex="1" parent="bpmn_6">
      <mxGeometry x="1200" y="1100" width="60" height="60" as="geometry"/>
    </mxCell>
    <mxCell id="bpmn_70" value="Payment\nSuccess" style="ellipse;whiteSpace=wrap;html=1;aspect=fixed;fillColor=#F8CECC;strokeColor=#B85450;strokeWidth=6;fontSize=10;fontColor=#000000;" vertex="1" parent="bpmn_6">
      <mxGeometry x="1400" y="1100" width="50" height="50" as="geometry"/>
    </mxCell>
    <mxCell id="bpmn_73" value="âš \nPayment\nFailed" style="ellipse;whiteSpace=wrap;html=1;aspect=fixed;fillColor=#F8CECC;strokeColor=#B85450;strokeWidth=6;fontSize=10;fontColor=#000000;" vertex="1" parent="bpmn_6">
      <mxGeometry x="1400" y="1180" width="50" height="50" as="geometry"/>
    </mxCell>
    <mxCell id="bpmn_9" value="" style="edgeStyle=orthogonalEdgeStyle;rounded=0;orthogonalLoop=1;jettySize=auto;html=1;strokeWidth=2;strokeColor=#000000;endArrow=classic;endSize=8;" edge="1" parent="1" source="bpmn_7" target="bpmn_8">
      <mxGeometry relative="1" as="geometry"/>
    </mxCell>
    <mxCell id="bpmn_11" value="" style="edgeStyle=orthogonalEdgeStyle;rounded=0;orthogonalLoop=1;jettySize=auto;html=1;strokeWidth=2;strokeColor=#000000;endArrow=classic;endSize=8;" edge="1" parent="1" source="bpmn_8" target="bpmn_10">
      <mxGeometry relative="1" as="geometry"/>
    </mxCell>
    <mxCell id="bpmn_13" value="Yes" style="edgeStyle=orthogonalEdgeStyle;rounded=0;orthogonalLoop=1;jettySize=auto;html=1;strokeWidth=2;strokeColor=#000000;endArrow=classic;endSize=8;" edge="1" parent="1" source="bpmn_10" target="bpmn_12">
      <mxGeometry relative="1" as="geometry"/>
    </mxCell>
    <mxCell id="bpmn_15" value="" style="edgeStyle=orthogonalEdgeStyle;rounded=0;orthogonalLoop=1;jettySize=auto;html=1;strokeWidth=2;strokeColor=#000000;endArrow=classic;endSize=8;" edge="1" parent="1" source="bpmn_12" target="bpmn_14">
      <mxGeometry relative="1" as="geometry"/>
    </mxCell>
    <mxCell id="bpmn_16" value="Continue Shopping" style="edgeStyle=orthogonalEdgeStyle;rounded=0;orthogonalLoop=1;jettySize=auto;html=1;strokeWidth=2;strokeColor=#000000;endArrow=classic;endSize=8;" edge="1" parent="1" source="bpmn_14" target="bpmn_8">
      <mxGeometry relative="1" as="geometry"/>
    </mxCell>
    <mxCell id="bpmn_18" value="Yes" style="edgeStyle=orthogonalEdgeStyle;rounded=0;orthogonalLoop=1;jettySize=auto;html=1;strokeWidth=2;strokeColor=#000000;endArrow=classic;endSize=8;" edge="1" parent="1" source="bpmn_14" target="bpmn_17">
      <mxGeometry relative="1" as="geometry"/>
    </mxCell>
    <mxCell id="bpmn_20" value="" style="edgeStyle=orthogonalEdgeStyle;rounded=0;orthogonalLoop=1;jettySize=auto;html=1;strokeWidth=2;strokeColor=#000000;endArrow=classic;endSize=8;" edge="1" parent="1" source="bpmn_17" target="bpmn_19">
      <mxGeometry relative="1" as="geometry"/>
    </mxCell>
    <mxCell id="bpmn_22" value="" style="edgeStyle=orthogonalEdgeStyle;rounded=0;orthogonalLoop=1;jettySize=auto;html=1;strokeWidth=2;strokeColor=#000000;endArrow=classic;endSize=8;" edge="1" parent="1" source="bpmn_19" target="bpmn_21">
      <mxGeometry relative="1" as="geometry"/>
    </mxCell>
    <mxCell id="bpmn_24" value="" style="edgeStyle=orthogonalEdgeStyle;rounded=0;orthogonalLoop=1;jettySize=auto;html=1;strokeWidth=2;strokeColor=#000000;endArrow=classic;endSize=8;" edge="1" parent="1" source="bpmn_21" target="bpmn_23">
      <mxGeometry relative="1" as="geometry"/>
    </mxCell>
    <mxCell id="bpmn_26" value="" style="edgeStyle=orthogonalEdgeStyle;rounded=0;orthogonalLoop=1;jettySize=auto;html=1;strokeWidth=2;strokeColor=#0066CC;dashed=1;dashPattern=8 8;startArrow=none;endArrow=classic;endSize=8;" edge="1" parent="1" source="bpmn_7" target="bpmn_25">
      <mxGeometry relative="1" as="geometry"/>
    </mxCell>
    <mxCell id="bpmn_28" value="" style="edgeStyle=orthogonalEdgeStyle;rounded=0;orthogonalLoop=1;jettySize=auto;html=1;strokeWidth=2;strokeColor=#000000;endArrow=classic;endSize=8;" edge="1" parent="1" source="bpmn_25" target="bpmn_27">
      <mxGeometry relative="1" as="geometry"/>
    </mxCell>
    <mxCell id="bpmn_30" value="" style="edgeStyle=orthogonalEdgeStyle;rounded=0;orthogonalLoop=1;jettySize=auto;html=1;strokeWidth=2;strokeColor=#000000;endArrow=classic;endSize=8;" edge="1" parent="1" source="bpmn_27" target="bpmn_29">
      <mxGeometry relative="1" as="geometry"/>
    </mxCell>
    <mxCell id="bpmn_32" value="" style="edgeStyle=orthogonalEdgeStyle;rounded=0;orthogonalLoop=1;jettySize=auto;html=1;strokeWidth=2;strokeColor=#000000;endArrow=classic;endSize=8;" edge="1" parent="1" source="bpmn_29" target="bpmn_31">
      <mxGeometry relative="1" as="geometry"/>
    </mxCell>
    <mxCell id="bpmn_34" value="" style="edgeStyle=orthogonalEdgeStyle;rounded=0;orthogonalLoop=1;jettySize=auto;html=1;strokeWidth=2;strokeColor=#000000;endArrow=classic;endSize=8;" edge="1" parent="1" source="bpmn_31" target="bpmn_33">
      <mxGeometry relative="1" as="geometry"/>
    </mxCell>
    <mxCell id="bpmn_36" value="" style="edgeStyle=orthogonalEdgeStyle;rounded=0;orthogonalLoop=1;jettySize=auto;html=1;strokeWidth=2;strokeColor=#000000;endArrow=classic;endSize=8;" edge="1" parent="1" source="bpmn_33" target="bpmn_35">
      <mxGeometry relative="1" as="geometry"/>
    </mxCell>
    <mxCell id="bpmn_38" value="" style="edgeStyle=orthogonalEdgeStyle;rounded=0;orthogonalLoop=1;jettySize=auto;html=1;strokeWidth=2;strokeColor=#000000;endArrow=classic;endSize=8;" edge="1" parent="1" source="bpmn_35" target="bpmn_37">
      <mxGeometry relative="1" as="geometry"/>
    </mxCell>
    <mxCell id="bpmn_40" value="" style="edgeStyle=orthogonalEdgeStyle;rounded=0;orthogonalLoop=1;jettySize=auto;html=1;strokeWidth=2;strokeColor=#000000;endArrow=classic;endSize=8;" edge="1" parent="1" source="bpmn_37" target="bpmn_39">
      <mxGeometry relative="1" as="geometry"/>
    </mxCell>
    <mxCell id="bpmn_42" value="" style="edgeStyle=orthogonalEdgeStyle;rounded=0;orthogonalLoop=1;jettySize=auto;html=1;strokeWidth=2;strokeColor=#0066CC;dashed=1;dashPattern=8 8;startArrow=none;endArrow=classic;endSize=8;" edge="1" parent="1" source="bpmn_35" target="bpmn_41">
      <mxGeometry relative="1" as="geometry"/>
    </mxCell>
    <mxCell id="bpmn_44" value="" style="edgeStyle=orthogonalEdgeStyle;rounded=0;orthogonalLoop=1;jettySize=auto;html=1;strokeWidth=2;strokeColor=#000000;endArrow=classic;endSize=8;" edge="1" parent="1" source="bpmn_41" target="bpmn_43">
      <mxGeometry relative="1" as="geometry"/>
    </mxCell>
    <mxCell id="bpmn_46" value="" style="edgeStyle=orthogonalEdgeStyle;rounded=0;orthogonalLoop=1;jettySize=auto;html=1;strokeWidth=2;strokeColor=#000000;endArrow=classic;endSize=8;" edge="1" parent="1" source="bpmn_43" target="bpmn_45">
      <mxGeometry relative="1" as="geometry"/>
    </mxCell>
    <mxCell id="bpmn_48" value="" style="edgeStyle=orthogonalEdgeStyle;rounded=0;orthogonalLoop=1;jettySize=auto;html=1;strokeWidth=2;strokeColor=#000000;endArrow=classic;endSize=8;" edge="1" parent="1" source="bpmn_45" target="bpmn_47">
      <mxGeometry relative="1" as="geometry"/>
    </mxCell>
    <mxCell id="bpmn_50" value="Valid" style="edgeStyle=orthogonalEdgeStyle;rounded=0;orthogonalLoop=1;jettySize=auto;html=1;strokeWidth=2;strokeColor=#000000;endArrow=classic;endSize=8;" edge="1" parent="1" source="bpmn_47" target="bpmn_49">
      <mxGeometry relative="1" as="geometry"/>
    </mxCell>
    <mxCell id="bpmn_52" value="" style="edgeStyle=orthogonalEdgeStyle;rounded=0;orthogonalLoop=1;jettySize=auto;html=1;strokeWidth=2;strokeColor=#000000;endArrow=classic;endSize=8;" edge="1" parent="1" source="bpmn_49" target="bpmn_51">
      <mxGeometry relative="1" as="geometry"/>
    </mxCell>
    <mxCell id="bpmn_54" value="" style="edgeStyle=orthogonalEdgeStyle;rounded=0;orthogonalLoop=1;jettySize=auto;html=1;strokeWidth=2;strokeColor=#000000;endArrow=classic;endSize=8;" edge="1" parent="1" source="bpmn_51" target="bpmn_53">
      <mxGeometry relative="1" as="geometry"/>
    </mxCell>
    <mxCell id="bpmn_56" value="" style="edgeStyle=orthogonalEdgeStyle;rounded=0;orthogonalLoop=1;jettySize=auto;html=1;strokeWidth=2;strokeColor=#000000;endArrow=classic;endSize=8;" edge="1" parent="1" source="bpmn_53" target="bpmn_55">
      <mxGeometry relative="1" as="geometry"/>
    </mxCell>
    <mxCell id="bpmn_58" value="Invalid" style="edgeStyle=orthogonalEdgeStyle;rounded=0;orthogonalLoop=1;jettySize=auto;html=1;strokeWidth=2;strokeColor=#000000;endArrow=classic;endSize=8;" edge="1" parent="1" source="bpmn_47" target="bpmn_57">
      <mxGeometry relative="1" as="geometry"/>
    </mxCell>
    <mxCell id="bpmn_65" value="" style="edgeStyle=orthogonalEdgeStyle;rounded=0;orthogonalLoop=1;jettySize=auto;html=1;strokeWidth=2;strokeColor=#0066CC;dashed=1;dashPattern=8 8;startArrow=none;endArrow=classic;endSize=8;" edge="1" parent="1" source="bpmn_21" target="bpmn_64">
      <mxGeometry relative="1" as="geometry"/>
    </mxCell>
    <mxCell id="bpmn_67" value="" style="edgeStyle=orthogonalEdgeStyle;rounded=0;orthogonalLoop=1;jettySize=auto;html=1;strokeWidth=2;strokeColor=#000000;endArrow=classic;endSize=8;" edge="1" parent="1" source="bpmn_64" target="bpmn_66">
      <mxGeometry relative="1" as="geometry"/>
    </mxCell>
    <mxCell id="bpmn_69" value="" style="edgeStyle=orthogonalEdgeStyle;rounded=0;orthogonalLoop=1;jettySize=auto;html=1;strokeWidth=2;strokeColor=#000000;endArrow=classic;endSize=8;" edge="1" parent="1" source="bpmn_66" target="bpmn_68">
      <mxGeometry relative="1" as="geometry"/>
    </mxCell>
    <mxCell id="bpmn_71" value="Success" style="edgeStyle=orthogonalEdgeStyle;rounded=0;orthogonalLoop=1;jettySize=auto;html=1;strokeWidth=2;strokeColor=#000000;endArrow=classic;endSize=8;" edge="1" parent="1" source="bpmn_68" target="bpmn_70">
      <mxGeometry relative="1" as="geometry"/>
    </mxCell>
    <mxCell id="bpmn_72" value="" style="edgeStyle=orthogonalEdgeStyle;rounded=0;orthogonalLoop=1;jettySize=auto;html=1;strokeWidth=2;strokeColor=#0066CC;dashed=1;dashPattern=8 8;startArrow=none;endArrow=classic;endSize=8;" edge="1" parent="1" source="bpmn_70" target="bpmn_23">
      <mxGeometry relative="1" as="geometry"/>
    </mxCell>
    <mxCell id="bpmn_74" value="Failed" style="edgeStyle=orthogonalEdgeStyle;rounded=0;orthogonalLoop=1;jettySize=auto;html=1;strokeWidth=2;strokeColor=#000000;endArrow=classic;endSize=8;" edge="1" parent="1" source="bpmn_68" target="bpmn_73">
      <mxGeometry relative="1" as="geometry"/>
    </mxCell>
    <mxCell id="bpmn_75" value="" style="edgeStyle=orthogonalEdgeStyle;rounded=0;orthogonalLoop=1;jettySize=auto;html=1;strokeWidth=1;strokeColor=#666666;dashed=1;dashPattern=3 3;startArrow=none;endArrow=none;" edge="1" parent="1" source="bpmn_27" target="bpmn_59">
      <mxGeometry relative="1" as="geometry"/>
    </mxCell>
    <mxCell id="bpmn_76" value="" style="edgeStyle=orthogonalEdgeStyle;rounded=0;orthogonalLoop=1;jettySize=auto;html=1;strokeWidth=1;strokeColor=#666666;dashed=1;dashPattern=3 3;startArrow=none;endArrow=none;" edge="1" parent="1" source="bpmn_49" target="bpmn_60">
      <mxGeometry relative="1" as="geometry"/>
    </mxCell>
    <mxCell id="bpmn_77" value="" style="edgeStyle=orthogonalEdgeStyle;rounded=0;orthogonalLoop=1;jettySize=auto;html=1;strokeWidth=1;strokeColor=#666666;dashed=1;dashPattern=3 3;startArrow=none;endArrow=none;" edge="1" parent="1" source="bpmn_43" target="bpmn_61">
      <mxGeometry relative="1" as="geometry"/>
    </mxCell>
    <mxCell id="bpmn_78" value="" style="edgeStyle=orthogonalEdgeStyle;rounded=0;orthogonalLoop=1;jettySize=auto;html=1;strokeWidth=1;strokeColor=#666666;dashed=1;dashPattern=3 3;startArrow=none;endArrow=none;" edge="1" parent="1" source="bpmn_31" target="bpmn_62">
      <mxGeometry relative="1" as="geometry"/>
    </mxCell>
    <mxCell id="bpmn_79" value="" style="edgeStyle=orthogonalEdgeStyle;rounded=0;orthogonalLoop=1;jettySize=auto;html=1;strokeWidth=1;strokeColor=#666666;dashed=1;dashPattern=3 3;startArrow=none;endArrow=none;" edge="1" parent="1" source="bpmn_51" target="bpmn_63">
      <mxGeometry relative="1" as="geometry"/>
    </mxCell>
      </root>
    </mxGraphModel>
  </diagram>
</mxfile>